<?xml version="1.0" encoding="UTF-8" standalone="no"?>
<svg
   width="500"
   zoomAndPan="magnify"
   viewBox="0 0 375 374.99999"
   height="500"
   preserveAspectRatio="xMidYMid"
   version="1.0"
   id="svg32"
   xmlns="http://www.w3.org/2000/svg"
   xmlns:svg="http://www.w3.org/2000/svg">
  <defs
     id="defs14">
    <clipPath
       id="d880cf9b44">
      <path
         d="m 103.125,103.125 h 112.5 v 112.5 h -112.5 z m 0,0"
         clip-rule="nonzero"
         id="path1" />
    </clipPath>
    <clipPath
       id="faa9dec25c">
      <path
         d="m 159.375,103.125 56.25,56.25 -56.25,56.25 -56.25,-56.25 z m 0,0"
         clip-rule="nonzero"
         id="path2" />
    </clipPath>
    <clipPath
       id="a31bde9dd7">
      <path
         d="m 159.375,103.125 h 112.5 v 112.5 h -112.5 z m 0,0"
         clip-rule="nonzero"
         id="path3" />
    </clipPath>
    <clipPath
       id="d313a5f42a">
      <path
         d="m 215.625,103.125 56.25,56.25 -56.25,56.25 -56.25,-56.25 z m 0,0"
         clip-rule="nonzero"
         id="path4" />
    </clipPath>
    <clipPath
       id="2e0f19644a">
      <path
         d="m 130.91016,159.375 h 112.5 v 112.5 h -112.5 z m 0,0"
         clip-rule="nonzero"
         id="path5" />
    </clipPath>
    <clipPath
       id="3927f4ec9b">
      <path
         d="m 187.16016,159.375 56.25,56.25 -56.25,56.25 -56.25,-56.25 z m 0,0"
         clip-rule="nonzero"
         id="path6" />
    </clipPath>
    <clipPath
       id="8aded9f6fa">
      <path
         d="m 126.35156,147.77734 h 30 V 164 h -30 z m 0,0"
         clip-rule="nonzero"
         id="path7" />
    </clipPath>
    <clipPath
       id="1aff635d26">
      <path
         d="m 126.35156,159 h 30 v 10 h -30 z m 0,0"
         clip-rule="nonzero"
         id="path8" />
    </clipPath>
    <clipPath
       id="a743867c16">
      <path
         d="m 126.35156,164 h 30 v 9 h -30 z m 0,0"
         clip-rule="nonzero"
         id="path9" />
    </clipPath>
    <clipPath
       id="05181fcddd">
      <path
         d="m 226.72656,147.77734 h 23.25 v 25.5 h -23.25 z m 0,0"
         clip-rule="nonzero"
         id="path10" />
    </clipPath>
    <clipPath
       id="2d411cb797">
      <path
         d="m 180,203.25781 h 11 V 212 h -11 z m 0,0"
         clip-rule="nonzero"
         id="path11" />
    </clipPath>
    <clipPath
       id="964d7e8408">
      <path
         d="M 175.5,219 H 196 v 10 h -20.5 z m 0,0"
         clip-rule="nonzero"
         id="path12" />
    </clipPath>
    <clipPath
       id="dfe9b2f942">
      <path
         d="M 175.5,228 H 196 v 3 h -20.5 z m 0,0"
         clip-rule="nonzero"
         id="path13" />
    </clipPath>
    <clipPath
       id="4bb9bab289">
      <path
         d="m 191,205 h 8.5 v 9 H 191 Z m 0,0"
         clip-rule="nonzero"
         id="path14" />
    </clipPath>
  </defs>
  <g
     clip-path="url(#d880cf9b44)"
     id="g16"
     style="fill:#f2f2f2"
     transform="matrix(2.2231183,0,0,2.0304659,-230.46875,-178.84745)">
    <g
       clip-path="url(#faa9dec25c)"
       id="g15"
       style="fill:#f2f2f2">
      <path
         stroke-linecap="butt"
         transform="matrix(0.75,0,0,0.75,103.125,103.12499)"
         fill="none"
         stroke-linejoin="miter"
         d="M 75.000008,9.02917e-6 150.00001,75.000014 75.000008,150.00002 3.02917e-6,75.000014 Z m 0,0"
         stroke="#ffffff"
         stroke-width="10"
         stroke-opacity="1"
         stroke-miterlimit="4"
         id="path15"
         style="fill:#f2f2f2" />
    </g>
  </g>
  <g
     clip-path="url(#a31bde9dd7)"
     id="g18"
     style="fill:#f2f2f2"
     transform="matrix(2.2231183,0,0,2.0304659,-230.46875,-178.84745)">
    <g
       clip-path="url(#d313a5f42a)"
       id="g17"
       style="fill:#f2f2f2">
      <path
         stroke-linecap="butt"
         transform="matrix(0.75,0,0,0.75,159.37499,103.12499)"
         fill="none"
         stroke-linejoin="miter"
         d="M 75.000013,9.02917e-6 150.00002,75.000014 75.000013,150.00002 7.95417e-6,75.000014 Z m 0,0"
         stroke="#ffffff"
         stroke-width="10"
         stroke-opacity="1"
         stroke-miterlimit="4"
         id="path16"
         style="fill:#f2f2f2" />
    </g>
  </g>
  <g
     clip-path="url(#2e0f19644a)"
     id="g20"
     style="fill:#f2f2f2"
     transform="matrix(2.2231183,0,0,2.0304659,-230.46875,-178.84745)">
    <g
       clip-path="url(#3927f4ec9b)"
       id="g19"
       style="fill:#f2f2f2">
      <path
         stroke-linecap="butt"
         transform="matrix(0.75,0,0,0.75,130.91124,159.37499)"
         fill="none"
         stroke-linejoin="miter"
         d="M 74.998565,1.39542e-5 149.99857,75.000019 74.998565,150.00002 -0.00143954,75.000019 Z m 0,0"
         stroke="#ffffff"
         stroke-width="10"
         stroke-opacity="1"
         stroke-miterlimit="4"
         id="path18"
         style="fill:#f2f2f2" />
    </g>
  </g>
  <g
     clip-path="url(#8aded9f6fa)"
     id="g21"
     style="fill:#f2f2f2"
     transform="matrix(2.2231183,0,0,2.0304659,-230.46875,-178.84745)">
    <path
       fill="#ffffff"
       d="m 126.73828,156.14062 14.31641,7.15625 c 0.082,0.043 0.17578,0.0625 0.26562,0.0625 0.0898,0 0.1836,-0.0195 0.26563,-0.0625 l 14.3164,-7.15625 c 0.19922,-0.10156 0.32813,-0.30859 0.32813,-0.53125 0,-0.22656 -0.12891,-0.43359 -0.32813,-0.53515 l -14.3164,-7.15625 c -0.16797,-0.0859 -0.36328,-0.0859 -0.53516,0 l -14.3125,7.15625 c -0.20312,0.10156 -0.32812,0.30859 -0.32812,0.53515 0,0.22266 0.125,0.42969 0.32812,0.53125 z m 14.58203,-7.02343 12.98047,6.49218 -12.98047,6.48829 -12.98047,-6.48829 z m 0,0"
       fill-opacity="1"
       fill-rule="nonzero"
       id="path20"
       style="fill:#f2f2f2" />
  </g>
  <g
     clip-path="url(#1aff635d26)"
     id="g22"
     style="fill:#f2f2f2"
     transform="matrix(2.2231183,0,0,2.0304659,-230.46875,-178.84745)">
    <path
       fill="#ffffff"
       d="m 155.36719,159.84375 -14.04688,7.02734 -14.04687,-7.02734 c -0.29688,-0.14453 -0.65235,-0.0273 -0.80078,0.26953 -0.14844,0.29297 -0.0273,0.65234 0.26562,0.80078 l 14.3125,7.15625 c 0.0859,0.043 0.17969,0.0625 0.26953,0.0625 0.0898,0 0.1836,-0.0195 0.26563,-0.0625 l 14.3164,-7.15625 c 0.29297,-0.14844 0.41407,-0.50781 0.26563,-0.80078 -0.14844,-0.29687 -0.50781,-0.41406 -0.80078,-0.26953 z m 0,0"
       fill-opacity="1"
       fill-rule="nonzero"
       id="path21"
       style="fill:#f2f2f2" />
  </g>
  <g
     clip-path="url(#a743867c16)"
     id="g23"
     style="fill:#f2f2f2"
     transform="matrix(2.2231183,0,0,2.0304659,-230.46875,-178.84745)">
    <path
       fill="#ffffff"
       d="m 155.36719,164.61719 -14.04688,7.02343 -14.04687,-7.02343 c -0.29688,-0.14844 -0.65235,-0.0273 -0.80078,0.26562 -0.14844,0.29688 -0.0273,0.65235 0.26562,0.80078 l 14.3125,7.15625 c 0.0859,0.043 0.17969,0.0625 0.26953,0.0625 0.0898,0 0.1836,-0.0195 0.26563,-0.0625 l 14.3164,-7.15625 c 0.29297,-0.14843 0.41407,-0.5039 0.26563,-0.80078 -0.14844,-0.29297 -0.50781,-0.41406 -0.80078,-0.26562 z m 0,0"
       fill-opacity="1"
       fill-rule="nonzero"
       id="path22"
       style="fill:#f2f2f2" />
  </g>
  <g
     clip-path="url(#05181fcddd)"
     id="g24"
     style="fill:#f2f2f2"
     transform="matrix(2.2231183,0,0,2.0304659,-230.46875,-178.84745)">
    <path
       fill="#ffffff"
       d="m 229.49609,156.12891 c 0.76172,0 1.38282,-0.6211 1.38282,-1.38672 0,-0.76172 -0.6211,-1.38282 -1.38282,-1.38282 -0.76562,0 -1.38672,0.6211 -1.38672,1.38282 0,0.76562 0.6211,1.38672 1.38672,1.38672 z m 0,-1.95704 c 0.3125,0 0.57032,0.25782 0.57032,0.57032 0,0.3164 -0.25782,0.57422 -0.57032,0.57422 -0.3164,0 -0.57422,-0.25782 -0.57422,-0.57422 0,-0.3125 0.25782,-0.57032 0.57422,-0.57032 z m 0,6.90625 c 0.76172,0 1.38282,-0.62109 1.38282,-1.38671 0,-0.76172 -0.6211,-1.38672 -1.38282,-1.38672 -0.76562,0 -1.38672,0.625 -1.38672,1.38672 0,0.76562 0.6211,1.38671 1.38672,1.38671 z m 0,-1.95703 c 0.3125,0 0.57032,0.25391 0.57032,0.57032 0,0.3164 -0.25782,0.57031 -0.57032,0.57031 -0.3164,0 -0.57422,-0.25391 -0.57422,-0.57031 0,-0.31641 0.25782,-0.57032 0.57422,-0.57032 z m 0,4.13282 c -0.76562,0 -1.38672,0.62109 -1.38672,1.38671 0,0.76563 0.6211,1.38672 1.38672,1.38672 0.76172,0 1.38282,-0.62109 1.38282,-1.38672 0,-0.76562 -0.6211,-1.38671 -1.38282,-1.38671 z m 0,1.95703 c -0.3164,0 -0.57422,-0.25391 -0.57422,-0.57032 0,-0.3164 0.25782,-0.57031 0.57422,-0.57031 0.3125,0 0.57032,0.25391 0.57032,0.57031 0,0.31641 -0.25782,0.57032 -0.57032,0.57032 z m 20.19922,-1.22657 -1.00781,-0.39062 c -0.14844,-0.53906 -0.36328,-1.05469 -0.64063,-1.53906 l 0.44141,-0.98828 c 0.0664,-0.15235 0.0352,-0.33204 -0.0859,-0.45313 l -1.39062,-1.39062 c -0.11719,-0.11719 -0.30078,-0.15235 -0.45313,-0.082 l -0.98828,0.4375 c -0.48437,-0.27734 -1,-0.49218 -1.53906,-0.63671 l -0.38672,-1.01172 c -0.0625,-0.15625 -0.21094,-0.25782 -0.38281,-0.25782 h -0.57422 v -7.07031 c 0,-0.84765 -0.86719,-1.57031 -2.50391,-2.08984 -1.46875,-0.46875 -3.41406,-0.72656 -5.47656,-0.72656 -2.0625,0 -4.00781,0.25781 -5.47656,0.72656 -1.63672,0.51953 -2.50391,1.24219 -2.50391,2.08984 v 14.69531 c 0,0.84766 0.86719,1.57032 2.50391,2.09375 1.46875,0.46485 3.41406,0.72266 5.47656,0.72266 0.51172,0 1.01563,-0.0156 1.51172,-0.0469 0.0898,0.19531 0.1875,0.38671 0.29297,0.57031 l -0.4375,0.98828 c -0.0703,0.15234 -0.0352,0.33203 0.082,0.45312 l 1.39062,1.39063 c 0.1211,0.12109 0.30079,0.15234 0.45313,0.0859 l 0.98828,-0.44141 c 0.48438,0.27734 1,0.49219 1.53906,0.64063 l 0.39063,1.00781 c 0.0586,0.15625 0.21094,0.26172 0.3789,0.26172 h 1.96485 c 0.17187,0 0.32031,-0.10547 0.38281,-0.26172 l 0.38672,-1.00781 c 0.53906,-0.14844 1.05469,-0.36329 1.53906,-0.64063 l 0.98828,0.44141 c 0.15235,0.0664 0.33203,0.0352 0.45313,-0.0859 l 1.39062,-1.39063 c 0.1211,-0.12109 0.15235,-0.30078 0.0859,-0.45312 l -0.44141,-0.98828 c 0.27735,-0.48438 0.49219,-1 0.64063,-1.53906 l 1.00781,-0.38672 c 0.15625,-0.0625 0.26172,-0.21094 0.26172,-0.38282 v -1.96484 c 0,-0.16797 -0.10547,-0.32031 -0.26172,-0.37891 z m -20.21875,-14.69921 c 1.39063,-0.44141 3.25,-0.6875 5.23047,-0.6875 1.98047,0 3.83984,0.24609 5.23047,0.6875 1.42578,0.45703 1.93359,0.98046 1.93359,1.3164 0,0.33985 -0.50781,0.86328 -1.93359,1.31641 -1.39063,0.44531 -3.25,0.6875 -5.23047,0.6875 -1.98047,0 -3.83984,-0.24219 -5.23047,-0.6875 -1.42578,-0.45313 -1.93359,-0.97656 -1.93359,-1.31641 0,-0.33594 0.50781,-0.86328 1.93359,-1.3164 z m -1.93359,2.62109 c 0.41015,0.29687 0.97656,0.5625 1.6875,0.78906 1.46875,0.46875 3.41406,0.72656 5.47656,0.72656 2.0625,0 4.00781,-0.25781 5.47656,-0.72656 0.71094,-0.22656 1.27735,-0.49219 1.6875,-0.78906 V 155.5 c 0,0.33984 -0.50781,0.86328 -1.93359,1.31641 -1.39063,0.44531 -3.25,0.6875 -5.23047,0.6875 -1.98047,0 -3.83984,-0.24219 -5.23047,-0.6875 -1.42578,-0.45313 -1.93359,-0.97657 -1.93359,-1.31641 z m 0,4.89844 c 0.41015,0.29687 0.97656,0.5625 1.6875,0.78906 1.46875,0.46875 3.41406,0.72266 5.47656,0.72266 2.0625,0 4.00781,-0.25391 5.47656,-0.72266 0.71094,-0.22656 1.27735,-0.49219 1.6875,-0.78906 v 0.86718 h -0.57422 c -0.16796,0 -0.32031,0.10157 -0.3789,0.25782 l -0.39063,1.01172 c -0.53906,0.14453 -1.05468,0.35937 -1.53906,0.63671 L 238,159.14062 c -0.15234,-0.0703 -0.33203,-0.0352 -0.45313,0.082 l -1.39062,1.39062 c -0.11719,0.12109 -0.15234,0.30078 -0.082,0.45313 l 0.4375,0.98828 c -0.0547,0.0937 -0.10547,0.1914 -0.15625,0.28906 -0.53906,0.0391 -1.08985,0.0586 -1.64844,0.0586 -1.98047,0 -3.83984,-0.24218 -5.23047,-0.6875 -1.42578,-0.45312 -1.93359,-0.97656 -1.93359,-1.3164 z m 7.16406,10.49609 c -1.98047,0 -3.83984,-0.24219 -5.23047,-0.6875 -1.42578,-0.45312 -1.93359,-0.97656 -1.93359,-1.31641 v -3.59375 c 0.41015,0.29688 0.97656,0.5625 1.6875,0.78907 1.46875,0.46875 3.41406,0.72265 5.47656,0.72265 0.43359,0 0.86719,-0.0117 1.29297,-0.0352 -0.0469,0.13672 -0.0898,0.27343 -0.125,0.41406 l -1.01172,0.39062 c -0.15625,0.0586 -0.25781,0.21094 -0.25781,0.37891 v 1.96484 c 0,0.17188 0.10156,0.32032 0.25781,0.38282 l 1.00781,0.38672 c 0.0156,0.0586 0.0352,0.11328 0.0508,0.17187 -0.39843,0.0195 -0.80468,0.0312 -1.21484,0.0312 z m 14.43359,-1.25 -0.9414,0.36328 c -0.125,0.0469 -0.21875,0.15625 -0.25,0.28516 -0.14453,0.60156 -0.38281,1.17187 -0.70313,1.69531 -0.0742,0.11719 -0.082,0.25781 -0.0273,0.37891 l 0.41016,0.92578 -0.9961,0.99609 -0.92187,-0.41015 c -0.125,-0.0547 -0.26563,-0.043 -0.37891,0.0273 -0.52734,0.32422 -1.09766,0.55859 -1.69922,0.70312 -0.1289,0.0312 -0.23828,0.125 -0.28515,0.25 l -0.36329,0.94141 h -1.41015 l -0.36328,-0.94141 c -0.0469,-0.125 -0.15235,-0.21875 -0.28516,-0.25 -0.59766,-0.14453 -1.16797,-0.3789 -1.69531,-0.70312 -0.11719,-0.0742 -0.25781,-0.082 -0.37891,-0.0273 l -0.92578,0.41015 -0.99609,-0.99609 0.41015,-0.92188 c 0.0547,-0.125 0.0469,-0.26562 -0.0234,-0.3789 -0.32422,-0.52735 -0.5625,-1.09766 -0.70704,-1.69922 -0.0312,-0.12891 -0.12109,-0.23828 -0.24609,-0.28516 l -0.94531,-0.36328 v -1.41016 l 0.94531,-0.36328 c 0.125,-0.0469 0.21875,-0.15234 0.25,-0.28515 0.14063,-0.59766 0.37891,-1.17188 0.70313,-1.69532 0.0703,-0.11718 0.0781,-0.25781 0.0234,-0.3789 l -0.41015,-0.92578 0.99609,-0.9961 0.92578,0.41016 c 0.1211,0.0547 0.26172,0.0469 0.37891,-0.0234 0.52344,-0.32422 1.09765,-0.5625 1.69531,-0.70312 0.13281,-0.0312 0.23828,-0.125 0.28516,-0.25 l 0.36328,-0.94532 h 1.41015 l 0.36329,0.94532 c 0.0469,0.125 0.15625,0.21875 0.28515,0.25 0.60156,0.14062 1.17188,0.3789 1.69531,0.70312 0.11719,0.0703 0.25782,0.0781 0.37891,0.0234 l 0.92578,-0.41016 0.9961,0.9961 -0.41016,0.92578 c -0.0547,0.12109 -0.043,0.26172 0.0273,0.3789 0.32422,0.52344 0.5586,1.09766 0.70313,1.69532 0.0312,0.13281 0.125,0.23828 0.25,0.28515 l 0.9414,0.36328 z m -6.85937,-5.22656 c -2.49609,0 -4.52344,2.02734 -4.52344,4.52344 0,2.49218 2.02735,4.51953 4.52344,4.51953 2.49219,0 4.51953,-2.02735 4.51953,-4.51953 0,-2.4961 -2.02734,-4.52344 -4.51953,-4.52344 z m 0,8.22656 c -2.04688,0 -3.70703,-1.66016 -3.70703,-3.70312 0,-2.04688 1.66015,-3.70704 3.70703,-3.70704 2.04297,0 3.70312,1.66016 3.70312,3.70704 0,2.04296 -1.66015,3.70312 -3.70312,3.70312 z M 243.14453,167 c 0.0586,0.21875 -0.0703,0.44141 -0.28906,0.5 -0.0352,0.0117 -0.0703,0.0156 -0.10547,0.0156 -0.17969,0 -0.34375,-0.12109 -0.39063,-0.30468 l -0.94531,-3.51953 c -0.0586,-0.21875 0.0703,-0.44141 0.28906,-0.5 0.21485,-0.0586 0.44141,0.0703 0.4961,0.28906 z m 0.79297,-3.26172 1.53906,1.29688 c 0.0898,0.0781 0.14453,0.1914 0.14453,0.3125 0,0.11718 -0.0547,0.23046 -0.14453,0.30859 l -1.53906,1.29687 c -0.0781,0.0625 -0.16797,0.0977 -0.26172,0.0977 -0.11719,0 -0.23047,-0.0508 -0.3125,-0.14844 -0.14453,-0.17187 -0.12109,-0.42578 0.0508,-0.57031 l 1.16797,-0.98437 -1.16797,-0.98438 c -0.17187,-0.14844 -0.19531,-0.40234 -0.0508,-0.57422 0.14453,-0.17187 0.40234,-0.19531 0.57422,-0.0508 z m -2.79297,0.625 -1.16797,0.98438 1.16797,0.98437 c 0.17188,0.14453 0.19531,0.39844 0.0508,0.57031 -0.082,0.0977 -0.19531,0.14844 -0.3125,0.14844 -0.0898,0 -0.18359,-0.0352 -0.26172,-0.0977 l -1.53906,-1.29687 c -0.0898,-0.0781 -0.14453,-0.19141 -0.14453,-0.30859 0,-0.1211 0.0547,-0.23438 0.14453,-0.3125 l 1.53906,-1.29688 c 0.17188,-0.14453 0.42969,-0.12109 0.57422,0.0508 0.14453,0.17188 0.1211,0.42578 -0.0508,0.57422 z m 0,0"
       fill-opacity="1"
       fill-rule="nonzero"
       id="path23"
       style="fill:#f2f2f2" />
  </g>
  <path
     fill="#ffffff"
     d="m 181.73733,265.30904 c -0.24315,0 -0.46894,-0.0951 -0.61657,-0.26967 l -4.28125,-4.83028 c -0.11294,-0.12691 -0.17367,-0.28554 -0.17367,-0.4521 v -3.58503 c 0,-0.26968 0.15631,-0.51556 0.41683,-0.64246 0.26053,-0.12691 0.58182,-0.10314 0.81631,0.0476 1.13761,0.72177 2.45757,1.10249 3.83835,1.10249 1.37208,0 2.70074,-0.38072 3.82967,-1.10249 0.24315,-0.1507 0.55578,-0.17449 0.81629,-0.0476 0.26052,0.1269 0.42552,0.37278 0.42552,0.64246 v 3.58503 c 0,0.16656 -0.0608,0.32519 -0.17367,0.4521 l -4.28994,4.83028 c -0.14761,0.17449 -0.37341,0.26967 -0.60787,0.26967 z m -3.49967,-5.80585 3.49967,3.94195 3.49099,-3.94195 v -2.08598 c -1.08552,0.46002 -2.27524,0.70589 -3.49099,0.70589 -1.21577,0 -2.40548,-0.24587 -3.49967,-0.70589 z m 0,0"
     fill-opacity="1"
     fill-rule="nonzero"
     id="path24"
     style="fill:#f2f2f2;stroke-width:2.12461" />
  <path
     fill="#ffffff"
     d="m 181.73733,258.1231 c -4.58518,0 -8.31934,-3.41054 -8.31934,-7.59839 v -0.48382 c 0,-0.39656 0.35606,-0.72176 0.79026,-0.72176 0.4342,0 0.79024,0.3252 0.79024,0.72176 v 0.48382 c 0,3.3947 3.02206,6.15487 6.73884,6.15487 3.71677,0 6.73882,-2.76017 6.73882,-6.15487 v -1.16593 c 0,-0.39658 0.35604,-0.72176 0.79025,-0.72176 0.4342,0 0.79024,0.32518 0.79024,0.72176 v 1.16593 c -0.01,4.18785 -3.73412,7.59839 -8.31931,7.59839 z m 0,0"
     fill-opacity="1"
     fill-rule="nonzero"
     id="path25"
     style="fill:#f2f2f2;stroke-width:2.12461" />
  <g
     clip-path="url(#2d411cb797)"
     id="g26"
     style="fill:#f2f2f2"
     transform="matrix(2.2231183,0,0,2.0304659,-230.46875,-178.84745)">
    <path
       fill="#ffffff"
       d="m 182.03125,211.58203 c -0.11719,0 -0.21875,-0.0586 -0.28516,-0.14453 -0.1914,-0.17188 -0.73437,-0.68359 -0.80468,-2.63281 -0.0156,-0.0195 -0.0273,-0.0352 -0.043,-0.0547 -0.16407,-0.23047 -0.33203,-0.71875 0.0859,-2.32031 0,-0.008 0.004,-0.0195 0.008,-0.0273 0.0156,-0.0391 0.33984,-0.92578 1.50781,-1.25 0.37109,-0.76172 1.35547,-1.88672 2.92969,-1.6289 0.13281,0.0195 0.23828,0.11328 0.28125,0.23828 0.004,0.008 0.008,0.0234 0.0156,0.0469 0.66016,-0.14062 1.90235,-0.28125 2.57813,0.42578 0.0586,0.0625 0.0937,0.14063 0.0977,0.22657 0.004,0.0508 0,0.22656 -0.14062,0.40234 0.18359,0.11328 0.38281,0.25781 0.58203,0.44141 0.61719,0.58203 1.33984,1.6914 1.26172,3.66797 0,0.0352 -0.008,0.0703 -0.0195,0.10156 -0.0156,0.043 -0.3711,1.07422 -0.98438,2.01172 -0.0898,0.13672 -0.26172,0.1914 -0.41406,0.14062 -0.15625,-0.0547 -0.25391,-0.20703 -0.23828,-0.37109 0.0937,-0.96485 0.0586,-2.69141 -0.4336,-3.20313 -0.0742,-0.0781 -0.15234,-0.12109 -0.24609,-0.1289 -1.37891,0.6914 -3.32422,0.6914 -4.70312,0 -0.082,0.0117 -0.14844,0.0469 -0.21875,0.11718 -0.51563,0.53907 -0.5586,2.46094 -0.46094,3.54688 0,0.008 0,0.0156 0,0.0195 0.008,0.19531 -0.13672,0.35938 -0.33203,0.37109 -0.008,0.004 -0.0156,0.004 -0.0234,0.004 z m 5.69531,-4.76953 c 0.3086,0 0.58594,0.12109 0.80469,0.35156 0.46094,0.48047 0.61719,1.42188 0.65625,2.2461 0.10547,-0.2461 0.17969,-0.4336 0.21094,-0.51954 0.10156,-3.15625 -2.04297,-3.67968 -2.13282,-3.69921 -0.17578,-0.0391 -0.29687,-0.20704 -0.27734,-0.38672 0.0195,-0.17578 0.17188,-0.3125 0.35156,-0.31641 0.0117,0 0.0234,0 0.0352,0 -0.61328,-0.18359 -1.51953,0 -1.85938,0.10547 -0.11718,0.0352 -0.24609,0.008 -0.33984,-0.0742 -0.0898,-0.082 -0.13281,-0.20312 -0.11328,-0.32031 -0.55078,-0.0273 -1.03516,0.17578 -1.44531,0.59765 -0.36328,0.3711 -0.53125,0.78516 -0.53516,0.78907 -0.043,0.10937 -0.13672,0.1914 -0.25391,0.21484 -0.85546,0.18359 -1.125,0.73828 -1.16406,0.83203 -0.30859,1.1875 -0.23437,1.57813 -0.19922,1.67578 0.10547,0.0625 0.17969,0.17578 0.1836,0.30469 0.004,0.17969 0.0117,0.37109 0.0273,0.56641 0.0703,-0.79297 0.25,-1.60157 0.66016,-2.02735 0.22656,-0.23828 0.51172,-0.35547 0.82812,-0.33984 0.0508,0.004 0.10156,0.0156 0.14844,0.043 1.19922,0.63281 3.00781,0.63281 4.20703,0 0.0469,-0.0273 0.0977,-0.0391 0.14844,-0.043 0.0195,0 0.0391,0 0.0586,0 z m -6.40625,1.45312 z m 0,0 z m 0,0 z m 0,0"
       fill-opacity="1"
       fill-rule="nonzero"
       id="path26"
       style="fill:#f2f2f2" />
  </g>
  <path
     fill="#ffffff"
     d="m 197.5423,267.83128 h -31.61864 c -0.22579,0 -0.45157,-0.0952 -0.5992,-0.25382 -0.14763,-0.16657 -0.2171,-0.37277 -0.17368,-0.58693 0.39078,-2.19703 1.6326,-4.21164 3.49968,-5.67895 1.88443,-1.47527 4.28991,-2.29222 6.76487,-2.29222 h 2.04075 c 0.29527,0 0.55578,0.15071 0.68605,0.37279 l 3.5952,4.05299 3.58651,-4.05299 c 0.13894,-0.22208 0.39947,-0.37279 0.69472,-0.37279 h 2.03207 c 2.47496,0 4.88044,0.81695 6.77357,2.29222 1.85838,1.46731 3.10889,3.48192 3.49968,5.67895 0.0348,0.21416 -0.026,0.42036 -0.17368,0.58693 -0.15633,0.15864 -0.37343,0.25382 -0.6079,0.25382 z m -30.63734,-1.44355 h 29.65605 c -1.0421,-3.43434 -4.55045,-5.92483 -8.51038,-5.92483 h -1.64128 l -4.06415,4.57647 c -0.14761,0.17449 -0.37341,0.26967 -0.60787,0.26967 -0.24315,0 -0.46894,-0.0951 -0.61657,-0.26967 l -4.06415,-4.57647 h -1.64128 c -3.95993,0 -7.4596,2.49049 -8.51037,5.92483 z m 0,0"
     fill-opacity="1"
     fill-rule="nonzero"
     id="path27"
     style="fill:#f2f2f2;stroke-width:2.12461" />
  <g
     clip-path="url(#964d7e8408)"
     id="g28"
     style="fill:#f2f2f2"
     transform="matrix(2.2231183,0,0,2.0304659,-230.46875,-178.84745)">
    <path
       fill="#ffffff"
       d="m 193.53906,228.98047 h -16.24219 c -0.17968,0 -0.32812,-0.13281 -0.35156,-0.30469 l -1.28125,-8.99219 c -0.0156,-0.10156 0.0156,-0.20703 0.082,-0.28515 0.0664,-0.0781 0.16797,-0.1211 0.26953,-0.1211 h 18.80469 c 0.10156,0 0.19922,0.043 0.26563,0.1211 0.0703,0.0781 0.10156,0.18359 0.0859,0.28515 l -1.28125,8.99219 c -0.0234,0.17188 -0.17578,0.30469 -0.35156,0.30469 z m -15.9375,-0.71094 h 15.62891 l 1.17969,-8.28125 h -17.98438 z m 0,0"
       fill-opacity="1"
       fill-rule="nonzero"
       id="path28"
       style="fill:#f2f2f2" />
  </g>
  <g
     clip-path="url(#dfe9b2f942)"
     id="g29"
     style="fill:#f2f2f2"
     transform="matrix(2.2231183,0,0,2.0304659,-230.46875,-178.84745)">
    <path
       fill="#ffffff"
       d="m 193.12891,230.82812 h -15.42188 c -1.21875,0 -2.20703,-0.98828 -2.20703,-2.20312 0,-0.19531 0.16016,-0.35547 0.35547,-0.35547 h 19.12109 c 0.19922,0 0.35547,0.16016 0.35547,0.35547 0,1.21484 -0.98828,2.20312 -2.20312,2.20312 z m -16.875,-1.84765 c 0.16015,0.65234 0.75,1.13672 1.45312,1.13672 h 15.42188 c 0.70312,0 1.29296,-0.48438 1.45312,-1.13672 z m 0,0"
       fill-opacity="1"
       fill-rule="nonzero"
       id="path29"
       style="fill:#f2f2f2" />
  </g>
  <path
     fill="#ffffff"
     d="m 181.73733,281.42587 c -3.13495,0 -5.68806,-2.32394 -5.68806,-5.1872 0,-2.86328 2.55311,-5.18721 5.68806,-5.18721 3.13493,0 5.67936,2.32393 5.67936,5.18721 0,2.86326 -2.54443,5.1872 -5.67936,5.1872 z m 0,-8.9388 c -2.26654,0 -4.10756,1.68147 -4.10756,3.7516 0,2.06218 1.84102,3.74367 4.10756,3.74367 2.25784,0 4.09888,-1.68149 4.09888,-3.74367 0,-2.07013 -1.84104,-3.7516 -4.09888,-3.7516 z m 0,0"
     fill-opacity="1"
     fill-rule="nonzero"
     id="path30"
     style="fill:#f2f2f2;stroke-width:2.12461" />
  <g
     clip-path="url(#4bb9bab289)"
     id="g31"
     style="fill:#f2f2f2"
     transform="matrix(2.2231183,0,0,2.0304659,-230.46875,-178.84745)">
    <path
       fill="#ffffff"
       d="m 195.76562,213.69141 h -0.72656 c -0.33594,0 -0.60937,-0.26563 -0.63672,-0.61329 l -0.0312,-0.47265 c -0.125,-0.0391 -0.24218,-0.0898 -0.35937,-0.14844 l -0.35547,0.30859 c -0.26563,0.23047 -0.64844,0.22266 -0.88672,-0.0156 l -0.51172,-0.51172 c -0.24219,-0.24219 -0.25,-0.62109 -0.0195,-0.88672 l 0.30859,-0.35547 c -0.0547,-0.11718 -0.10546,-0.23828 -0.14843,-0.35937 l -0.46875,-0.0312 c -0.34766,-0.0273 -0.61328,-0.30078 -0.61328,-0.64063 v -0.72265 c 0,-0.33985 0.26562,-0.61328 0.61328,-0.64063 l 0.46875,-0.0312 c 0.043,-0.125 0.0937,-0.24219 0.14843,-0.35937 l -0.30859,-0.35547 c -0.23047,-0.26563 -0.22266,-0.64453 0.0195,-0.88672 l 0.51172,-0.51172 c 0.23828,-0.24219 0.62109,-0.24609 0.88281,-0.0195 l 0.35938,0.3125 c 0.11719,-0.0586 0.23437,-0.10938 0.35547,-0.14844 l 0.0352,-0.47265 c 0.0234,-0.34766 0.29688,-0.61329 0.63672,-0.61329 h 0.72656 c 0.33985,0 0.61329,0.26563 0.63672,0.61329 l 0.0352,0.47265 c 0.12109,0.0391 0.24219,0.0898 0.35937,0.14844 l 0.35547,-0.3125 c 0.26563,-0.22656 0.64453,-0.22266 0.88282,0.0195 l 0.51562,0.51172 c 0.23828,0.24219 0.24609,0.62109 0.0156,0.88672 l -0.3086,0.35547 c 0.0547,0.11718 0.10547,0.23437 0.14844,0.35937 l 0.46875,0.0312 c 0.35156,0.0234 0.61328,0.30078 0.61328,0.63672 v 0.72656 c 0,0.33985 -0.26172,0.61328 -0.61328,0.64063 l -0.46875,0.0312 c -0.043,0.12109 -0.0937,0.24219 -0.14844,0.35937 l 0.3086,0.35547 c 0.23046,0.26563 0.22265,0.64453 -0.0156,0.88281 l -0.51562,0.51563 c -0.23829,0.23828 -0.61719,0.24609 -0.88282,0.0156 l -0.35937,-0.30859 c -0.11328,0.0547 -0.23438,0.10547 -0.35547,0.14844 l -0.0352,0.46875 c -0.0234,0.35156 -0.29687,0.61719 -0.63672,0.61719 z m -0.65625,-0.71094 h 0.58985 l 0.0469,-0.66797 c 0.0117,-0.15234 0.11719,-0.28125 0.26563,-0.32031 0.23047,-0.0586 0.44531,-0.14844 0.64844,-0.26953 0.13281,-0.0781 0.30078,-0.0625 0.41406,0.0391 l 0.50781,0.4375 0.41797,-0.41797 -0.4375,-0.50781 c -0.10156,-0.11328 -0.11719,-0.28125 -0.0391,-0.41407 0.12109,-0.20312 0.21093,-0.41796 0.26953,-0.64843 0.0391,-0.14844 0.16797,-0.25391 0.32031,-0.26563 l 0.66797,-0.0469 v -0.58985 l -0.66797,-0.0508 c -0.15234,-0.008 -0.28125,-0.11719 -0.32031,-0.26562 -0.0586,-0.22657 -0.14844,-0.44532 -0.26953,-0.64844 -0.0781,-0.13281 -0.0625,-0.29688 0.0391,-0.41406 l 0.4375,-0.50782 -0.41797,-0.41796 -0.50781,0.4414 c -0.11328,0.10156 -0.28125,0.11328 -0.41406,0.0352 -0.20313,-0.1211 -0.41797,-0.21094 -0.64844,-0.26953 -0.14844,-0.0352 -0.25391,-0.16407 -0.26563,-0.31641 l -0.0469,-0.67187 h -0.58985 l -0.0508,0.67187 c -0.008,0.15234 -0.11718,0.28125 -0.26562,0.31641 -0.22656,0.0586 -0.44531,0.15234 -0.64844,0.26953 -0.13281,0.0781 -0.29687,0.0664 -0.41406,-0.0352 l -0.50781,-0.4414 -0.41797,0.41796 0.4414,0.50782 c 0.10157,0.11718 0.11328,0.28125 0.0352,0.41406 -0.12109,0.20312 -0.21094,0.42187 -0.26953,0.64844 -0.0352,0.14843 -0.16406,0.25781 -0.31641,0.26562 l -0.66797,0.0508 v 0.58985 l 0.66797,0.0469 c 0.15235,0.0117 0.28125,0.11719 0.31641,0.26563 0.0586,0.23047 0.15234,0.44531 0.26953,0.64843 0.0781,0.13282 0.0664,0.30079 -0.0352,0.41407 l -0.4414,0.50781 0.41797,0.41797 0.50781,-0.44141 c 0.11719,-0.0977 0.28125,-0.11328 0.41406,-0.0352 0.20313,0.12109 0.42188,0.21093 0.64844,0.26953 0.14844,0.0352 0.25781,0.16406 0.26562,0.32031 z m 0,0"
       fill-opacity="1"
       fill-rule="nonzero"
       id="path31"
       style="fill:#f2f2f2" />
  </g>
  <path
     fill="#ffffff"
     d="m 203.93378,250.54058 c -2.28391,0 -4.15098,-1.70528 -4.15098,-3.79126 0,-2.09391 1.86707,-3.79919 4.15098,-3.79919 2.29258,0 4.15096,1.70528 4.15096,3.79919 0,2.08598 -1.85838,3.79126 -4.15096,3.79126 z m 0,-6.14691 c -1.41551,0 -2.5705,1.05489 -2.5705,2.34772 0,1.30076 1.15499,2.35566 2.5705,2.35566 1.42418,0 2.57048,-1.0549 2.57048,-2.35566 0,-1.29283 -1.1463,-2.34772 -2.57048,-2.34772 z m 0,0"
     fill-opacity="1"
     fill-rule="nonzero"
     id="path32"
     style="fill:#f2f2f2;stroke-width:2.12461" />
</svg>
